<mxfile host="app.diagrams.net" modified="2024-07-18T03:03:44.917Z" agent="Mozilla/5.0 (Macintosh; Intel Mac OS X 10_15_7) AppleWebKit/537.36 (KHTML, like Gecko) Chrome/125.0.0.0 Safari/537.36" version="22.0.0" etag="N046blZTPnTyHivI9MsZ" type="github">
  <diagram name="Page-1" id="Wxgo6JuA0PamLUdTnk4V">
    <mxGraphModel>
      <root>
        <mxCell id="0" />
        <mxCell id="1" parent="0" />
      </root>
    </mxGraphModel>
  </diagram>
</mxfile>
